<?xml version="1.0" encoding="iso-8859-1"?>
<!-- Generator: Adobe Illustrator 16.0.0, SVG Export Plug-In . SVG Version: 6.00 Build 0)  -->
<!DOCTYPE svg PUBLIC "-//W3C//DTD SVG 1.1//EN" "http://www.w3.org/Graphics/SVG/1.1/DTD/svg11.dtd">
<svg version="1.1" id="Capa_1" xmlns="http://www.w3.org/2000/svg" xmlns:xlink="http://www.w3.org/1999/xlink" x="0px" y="0px"
	 width="363.025px" height="363.024px" viewBox="0 0 363.025 363.024" style="enable-background:new 0 0 363.025 363.024;"
	 xml:space="preserve">
<g>
	<g>
		<path style="fill:#030303;" d="M181.512,363.024C81.422,363.024,0,281.601,0,181.513C0,81.424,81.422,0,181.512,0
			c100.089,0,181.513,81.424,181.513,181.513C363.025,281.601,281.601,363.024,181.512,363.024z M181.512,11.71
			C87.886,11.71,11.71,87.889,11.71,181.513c0,93.627,76.176,169.802,169.802,169.802c93.627,0,169.803-76.175,169.803-169.802
			C351.315,87.889,275.139,11.71,181.512,11.71z"/>
	</g>
	<g>
		<g>
			<path style="fill:#030303;" d="M119.061,160.041c-13.995,0-25.376-11.376-25.376-25.371c0-13.992,11.382-25.376,25.376-25.376
				s25.371,11.385,25.371,25.376C144.431,148.665,133.055,160.041,119.061,160.041z M119.061,121.004
				c-7.537,0-13.666,6.132-13.666,13.666c0,7.531,6.129,13.661,13.666,13.661c7.531,0,13.66-6.13,13.66-13.661
				C132.721,127.137,126.591,121.004,119.061,121.004z"/>
		</g>
		<g>
			<path style="fill:#030303;" d="M243.97,160.041c-13.991,0-25.37-11.376-25.37-25.371c0-13.992,11.379-25.376,25.37-25.376
				c13.992,0,25.371,11.385,25.371,25.376C269.341,148.665,257.962,160.041,243.97,160.041z M243.97,121.004
				c-7.53,0-13.66,6.132-13.66,13.666c0,7.531,6.13,13.661,13.66,13.661c7.531,0,13.661-6.13,13.661-13.661
				C257.631,127.137,251.501,121.004,243.97,121.004z"/>
		</g>
	</g>
	<g>
		<rect x="55.625" y="220.983" style="fill:#030303;" width="245.92" height="11.711"/>
	</g>
</g>
<g>
</g>
<g>
</g>
<g>
</g>
<g>
</g>
<g>
</g>
<g>
</g>
<g>
</g>
<g>
</g>
<g>
</g>
<g>
</g>
<g>
</g>
<g>
</g>
<g>
</g>
<g>
</g>
<g>
</g>
</svg>
